<svg width="35" height="22" viewBox="0 0 35 22" fill="none" xmlns="http://www.w3.org/2000/svg">
<path d="M0 6.10975V5.23711C0 4.51419 0.734521 3.92816 1.64062 3.92816H26.25V1.31026C26.25 0.144908 28.0204 -0.437303 29.0508 0.384665L34.5195 4.74784C35.1602 5.25904 35.1602 6.08782 34.5195 6.59897L29.0508 10.9621C28.0243 11.7809 26.25 11.2068 26.25 10.0366V7.4187H1.64062C0.734521 7.4187 0 6.83267 0 6.10975ZM33.3594 14.3998H8.75V11.7819C8.75 10.6194 6.98209 10.0322 5.94925 10.8563L0.480498 15.2195C-0.160166 15.7307 -0.160166 16.5594 0.480498 17.0706L5.94925 21.4338C6.97655 22.2533 8.75 21.6774 8.75 20.5082V17.8903H33.3594C34.2655 17.8903 35 17.3043 35 16.5814V15.7087C35 14.9858 34.2655 14.3998 33.3594 14.3998Z" fill="#FFF"/>
</svg>
