<svg width="36" height="41" viewBox="0 0 36 41" fill="none" xmlns="http://www.w3.org/2000/svg">
<path d="M0.5 36.4766C0.5 38.5598 2.17969 40.25 4.25 40.25H31.75C33.8203 40.25 35.5 38.5598 35.5 36.4766V15.0938H0.5V36.4766ZM25.5 21.0684C25.5 20.5495 25.9219 20.125 26.4375 20.125H29.5625C30.0781 20.125 30.5 20.5495 30.5 21.0684V24.2129C30.5 24.7317 30.0781 25.1562 29.5625 25.1562H26.4375C25.9219 25.1562 25.5 24.7317 25.5 24.2129V21.0684ZM25.5 31.1309C25.5 30.612 25.9219 30.1875 26.4375 30.1875H29.5625C30.0781 30.1875 30.5 30.612 30.5 31.1309V34.2754C30.5 34.7942 30.0781 35.2188 29.5625 35.2188H26.4375C25.9219 35.2188 25.5 34.7942 25.5 34.2754V31.1309ZM15.5 21.0684C15.5 20.5495 15.9219 20.125 16.4375 20.125H19.5625C20.0781 20.125 20.5 20.5495 20.5 21.0684V24.2129C20.5 24.7317 20.0781 25.1562 19.5625 25.1562H16.4375C15.9219 25.1562 15.5 24.7317 15.5 24.2129V21.0684ZM15.5 31.1309C15.5 30.612 15.9219 30.1875 16.4375 30.1875H19.5625C20.0781 30.1875 20.5 30.612 20.5 31.1309V34.2754C20.5 34.7942 20.0781 35.2188 19.5625 35.2188H16.4375C15.9219 35.2188 15.5 34.7942 15.5 34.2754V31.1309ZM5.5 21.0684C5.5 20.5495 5.92188 20.125 6.4375 20.125H9.5625C10.0781 20.125 10.5 20.5495 10.5 21.0684V24.2129C10.5 24.7317 10.0781 25.1562 9.5625 25.1562H6.4375C5.92188 25.1562 5.5 24.7317 5.5 24.2129V21.0684ZM5.5 31.1309C5.5 30.612 5.92188 30.1875 6.4375 30.1875H9.5625C10.0781 30.1875 10.5 30.612 10.5 31.1309V34.2754C10.5 34.7942 10.0781 35.2188 9.5625 35.2188H6.4375C5.92188 35.2188 5.5 34.7942 5.5 34.2754V31.1309ZM31.75 5.03125H28V1.25781C28 0.566016 27.4375 0 26.75 0H24.25C23.5625 0 23 0.566016 23 1.25781V5.03125H13V1.25781C13 0.566016 12.4375 0 11.75 0H9.25C8.5625 0 8 0.566016 8 1.25781V5.03125H4.25C2.17969 5.03125 0.5 6.72144 0.5 8.80469V12.5781H35.5V8.80469C35.5 6.72144 33.8203 5.03125 31.75 5.03125Z" fill="#FFF"/>
</svg>
