<svg xmlns="http://www.w3.org/2000/svg"
     xmlns:xlink="http://www.w3.org/1999/xlink" viewBox="0 0 134 83"
     width="134" height="83">
  <style>
    .u {
      transform-box: fill-box;
      transform-origin: center;
      animation: circle-animation 2500ms linear infinite normal forwards
    }

    @keyframes circle-animation {
      0% {
        transform: translateX(-95px) translateY(20px) rotate(65deg) scale(0);
      }
      45% {
        transform: translateX(0) translateY(0) rotate(0) scale(1);
      }
      85% {
        opacity: 1;
        transform: translateX(0) translateY(0) rotate(0) scale(1);
      }
      100% {
        opacity: 0;
      }
    }
  </style>
  <defs>
    <g id="cone">
      <linearGradient id="P" gradientUnits="userSpaceOnUse"/>
      <linearGradient id="g1" x1="39.4" y1="40.2" x2="43.5" y2="87.2"
                      href="#P">
        <stop stop-color="#f9c846"/>
        <stop offset="1" stop-color="#f96e46"/>
      </linearGradient>
      <linearGradient id="g2" x1="39.4" y1="40.2" x2="43.5" y2="87.2"
                      href="#P">
        <stop stop-color="#f9c846"/>
        <stop offset="1" stop-color="#f96e46" stop-opacity="0"/>
      </linearGradient>
      <linearGradient id="g3" x1="43.1" y1="34.3" x2="35.3" y2="69.3"
                      href="#P">
        <stop stop-color="#ffeeca"/>
        <stop offset="1" stop-color="#ff8576"/>
      </linearGradient>
      <linearGradient id="g4" x1="44.6" y1="38.2" x2="29.2" y2="64.9"
                      href="#P">
        <stop stop-color="#f9c846"/>
        <stop offset="1" stop-color="#f96e46"/>
      </linearGradient>
    </g>
    <clipPath clipPathUnits="userSpaceOnUse" id="cp1">
      <path
          d="m52.13 73.13l-49.15 3.86q-0.29 0.02-0.53-0.12c-0.35-0.24-1.01-0.8-1.43-1.89-0.42-1.1-0.34-2.02-0.25-2.47q0.07-0.3 0.31-0.49l38.35-31.82z"/>
    </clipPath>
    <linearGradient id="g5" x1="2.9" y1="5" x2="13.1" y2="100.4" href="#P">
      <stop stop-color="#00b2ff"/>
      <stop offset="1" stop-color="#00a5ff"/>
    </linearGradient>
    <linearGradient id="g6" x1="2.9" y1="5" x2="13.1" y2="100.4" href="#P">
      <stop stop-color="#00b2ff"/>
      <stop offset="1" stop-color="#00a5ff" stop-opacity="0"/>
    </linearGradient>
    <linearGradient id="g7" x1="-1.5" y1="1.5" x2="9.4" y2="103.4"
                    href="#P">
      <stop stop-color="#00b2ff"/>
      <stop offset="1" stop-color="#00a5ff"/>
    </linearGradient>
    <linearGradient id="g8" x1="-1.5" y1="1.5" x2="9.4" y2="103.4"
                    href="#P">
      <stop stop-color="#00b2ff"/>
      <stop offset="1" stop-color="#00a5ff" stop-opacity="0"/>
    </linearGradient>
    <linearGradient id="g9" x1="-12.9" y1="16.7" x2="21.7" y2="106.3"
                    href="#P">
      <stop stop-color="#00b2ff"/>
      <stop offset="1" stop-color="#00a5ff"/>
    </linearGradient>
    <linearGradient id="g10" x1="-12.9" y1="16.7" x2="21.7" y2="106.3"
                    href="#P">
      <stop stop-color="#00b2ff"/>
      <stop offset="1" stop-color="#00a5ff" stop-opacity="0"/>
    </linearGradient>
    <linearGradient id="g11" x1="50.4" y1="54.7" x2="32.1" y2="61.8"
                    href="#P">
      <stop stop-color="#f96e46"/>
      <stop offset="1" stop-color="#9b0019"/>
    </linearGradient>
    <clipPath clipPathUnits="userSpaceOnUse" id="cp2">
      <path
          d="m41.37 58.37c-3.16-8.19-2.97-17.17-1.61-17.7 1.36-0.52 6.32 2.87 10.68 14.2 4.37 11.32 2.98 17.17 1.62 17.69-1.36 0.53-7.53-6.01-10.69-14.19z"/>
    </clipPath>
    <clipPath clipPathUnits="userSpaceOnUse" id="cp3">
      <path
          d="m59.12 42.2l2.59-1q0.87 2.25 0.87 4.28c2.03-0.08 4.44-0.82 6.82-2.12 5.46-3.01 10.01-8.58 9.48-14.56l2.76-0.24c0.67 7.56-4.98 13.97-10.91 17.23-2.83 1.56-5.9 2.5-8.64 2.48-0.53 1.46-1.5 2.69-2.79 3.68-3.06 2.35-8 3.4-13.99 3.36l0.02-2.78c5.8 0.04 9.96-1.01 12.28-2.78q1.11-0.86 1.65-1.92c-1.9-0.61-3.47-1.9-4.29-4.03l2.59-1q0.64 1.64 2.23 2.28-0.06-1.27-0.67-2.88z"/>
    </clipPath>
    <linearGradient
        id="g12"
        x1="36.8"
        y1="21"
        x2="47.3"
        y2="48.2"
        href="#P">
      <stop offset="0%" stop-color="#7fc764">
        <animate
            attributeName="stop-color"
            from="transparent"
            to="#7fc764"
            dur="1000ms"
            repeatCount="1"
        />
      </stop>
      <stop offset="1" stop-color="#00b76b">
        <animate
            attributeName="stop-color"
            from="transparent"
            to="#00b76b"
            dur="1000ms"
            repeatCount="1"
        />
      </stop>
    </linearGradient>
    <linearGradient id="g13" x1="44.5" y1="30.5" x2="55" y2="57.8"
                    href="#P">
      <stop stop-color="#00b2ff">
        <animate
            attributeName="stop-color"
            from="transparent"
            to="#00b2ff"
            dur="300ms"
            repeatCount="1"
        />
      </stop>
      <stop offset="1" stop-color="#00a5ff">
        <animate
            attributeName="stop-color"
            from="transparent"
            to="#00a5ff"
            dur="300ms"
            repeatCount="1"
        />
      </stop>
    </linearGradient>
    <clipPath clipPathUnits="userSpaceOnUse" id="cp4">
      <path
          d="m59.11 42.2l2.6-1q0.87 2.25 0.87 4.28c2.03-0.08 4.44-0.82 6.82-2.12 5.46-3.01 10.01-8.58 9.47-14.56l2.77-0.24c0.67 7.55-4.98 13.97-10.91 17.23-2.83 1.56-5.9 2.5-8.64 2.48-0.53 1.46-1.5 2.69-2.79 3.68-3.06 2.35-8 3.4-13.99 3.36l0.02-2.78c5.8 0.04 9.96-1.01 12.27-2.78q1.12-0.86 1.66-1.92c-1.9-0.61-3.47-1.9-4.29-4.03l2.59-1q0.64 1.64 2.23 2.28-0.06-1.27-0.68-2.88z"/>
    </clipPath>
    <linearGradient id="g14" x1="44.5" y1="30.5" x2="55" y2="57.8"
                    href="#P">
      <stop stop-color="#00b2ff">
        <animate
            attributeName="stop-color"
            from="transparent"
            to="#00b2ff"
            dur="300ms"
            repeatCount="1"
        />
      </stop>
      <stop offset="1" stop-color="#00a5ff">
        <animate
            attributeName="stop-color"
            from="transparent"
            to="#00b2ff"
            dur="300ms"
            repeatCount="1"
        />
      </stop>
    </linearGradient>
    <linearGradient id="g15" x1="74.1" y1="68.2" x2="74.6" y2="72.9"
                    href="#P">
      <stop stop-color="#ff5d51">
        <animate
            attributeName="stop-color"
            from="transparent"
            to="#ff5d51"
            dur="300ms"
            repeatCount="1"
        />
      </stop>
      <stop offset="1" stop-color="#f54772">
        <animate
            attributeName="stop-color"
            from="transparent"
            to="#f54772"
            dur="300ms"
            repeatCount="1"
        />
      </stop>
    </linearGradient>
    <linearGradient id="g16" x1="77.7" y1="63.3" x2="34.1" y2="56.7"
                    href="#P">
      <stop stop-color="#ae74ff">
        <animate
            attributeName="stop-color"
            from="transparent"
            to="#ae74ff"
            dur="300ms"
            repeatCount="1"
        />
      </stop>
      <stop offset=".6" stop-color="#804bd1">
        <animate
            attributeName="stop-color"
            from="transparent"
            to="#804bd1"
            dur="300ms"
            repeatCount="1"
        />
      </stop>
      <stop offset="1" stop-color="#005bd4">
        <animate
            attributeName="stop-color"
            from="transparent"
            to="#005bd4"
            dur="300ms"
            repeatCount="1"
        />
      </stop>
    </linearGradient>
    <linearGradient id="g27" x1="63.2" y1="26.5" x2="96.7" y2="26.5"
                    href="#P">
      <stop stop-color="#f96e46"/>
      <stop offset="1" stop-color="#f9c846"/>
    </linearGradient>
  </defs>
  <style>
    .a{fill:url(#g1)}.b{mix-blend-mode:soft-light}.c{fill:url(#g2)}.d{fill:url(#g3)}.e{mix-blend-mode:color;fill:url(#g4)}.f{fill:url(#g5)}.g{mix-blend-mode:hard-light}.h{fill:url(#g6)}.i{fill:url(#g7)}.j{fill:url(#g8)}.k{fill:url(#g9)}.l{fill:url(#g10)}.m{fill:url(#g11)}.n{fill:#fff}.o{fill:url(#g12)}.p{fill:url(#g13)}.q{fill:url(#g14)}.r{fill:url(#g15)}.s{fill:url(#g16)}.t{fill:url(#g17)}.u{mix-blend-mode:overlay}.v{fill:url(#g18)}.w{fill:url(#g19)}.x{fill:url(#g20)}.y{fill:url(#g21)}.z{fill:url(#g22)}.A{fill:url(#g23)}.B{fill:url(#g24)}.C{fill:url(#g25)}.D{fill:url(#g26)}.E{fill:url(#g27)}
  </style>
  <path class="a"
        d="m52.1 73.1l-49.1 3.9q-0.3 0-0.5-0.1c-0.4-0.3-1.1-0.8-1.5-1.9-0.4-1.1-0.3-2-0.2-2.5q0-0.3 0.3-0.5l38.3-31.8z"/>
  <path class="b"
        d="m52.1 73.1l-49.1 3.9q-0.3 0-0.5-0.1c-0.4-0.3-1.1-0.8-1.5-1.9-0.4-1.1-0.3-2-0.2-2.5q0-0.3 0.3-0.5l38.3-31.8z"/>
  <path class="b"
        d="m52.1 73.1l-49.1 3.9q-0.3 0-0.5-0.1c-0.4-0.3-1.1-0.8-1.5-1.9-0.4-1.1-0.3-2-0.2-2.5q0-0.3 0.3-0.5l38.3-31.8z"/>
  <path class="c"
        d="m52.1 73.1l-49.1 3.9q-0.3 0-0.5-0.1c-0.4-0.3-1.1-0.8-1.5-1.9-0.4-1.1-0.3-2-0.2-2.5q0-0.3 0.3-0.5l38.3-31.8z"/>
  <path class="d"
        d="m40.6 58.7c-3.3-8.5-3-17.8-1.2-18.5 1.8-0.7 7.1 2.8 11.6 14.5 4.5 11.7 2.7 17.8 1.1 18.4-1.5 0.6-8.2-6-11.5-14.4z"/>
  <path class="b"
        d="m40.6 58.7c-3.3-8.5-3-17.8-1.2-18.5 1.8-0.7 7.1 2.8 11.6 14.5 4.5 11.7 2.7 17.8 1.1 18.4-1.5 0.6-8.2-6-11.5-14.4z"/>
  <path class="e"
        d="m40.6 58.7c-3.3-8.5-3-17.8-1.2-18.5 1.8-0.7 7.1 2.8 11.6 14.5 4.5 11.7 2.7 17.8 1.1 18.4-1.5 0.6-8.2-6-11.5-14.4z"/>
  <g clip-path="url(#cp1)">
    <path class="f"
          d="m47.1 79.5c-4.2 1.7-13.9-7.5-17.4-16.6-3.5-9.1-2.7-22.4 1.7-24.1 4.5-1.7-1.2 12.1 2.7 22.4 4 10.2 17.3 16.7 13 18.3z"/>
    <path class="g"
          d="m47.1 79.5c-4.2 1.7-13.9-7.5-17.4-16.6-3.5-9.1-2.7-22.4 1.7-24.1 4.5-1.7-1.2 12.1 2.7 22.4 4 10.2 17.3 16.7 13 18.3z"/>
    <path class="h"
          d="m47.1 79.5c-4.2 1.7-13.9-7.5-17.4-16.6-3.5-9.1-2.7-22.4 1.7-24.1 4.5-1.7-1.2 12.1 2.7 22.4 4 10.2 17.3 16.7 13 18.3z"/>
    <path class="i"
          d="m37.2 81.9c-4.3 1.6-15.7-8.4-18.2-14.9-2.6-6.5-0.9-21.5 3.5-23.2 4.4-1.7-5.4 9.2-0.4 22 4.9 12.8 19.4 14.4 15.1 16.1z"/>
    <path class="g"
          d="m37.2 81.9c-4.3 1.6-15.7-8.4-18.2-14.9-2.6-6.5-0.9-21.5 3.5-23.2 4.4-1.7-5.4 9.2-0.4 22 4.9 12.8 19.4 14.4 15.1 16.1z"/>
    <path class="j"
          d="m37.2 81.9c-4.3 1.6-15.7-8.4-18.2-14.9-2.6-6.5-0.9-21.5 3.5-23.2 4.4-1.7-5.4 9.2-0.4 22 4.9 12.8 19.4 14.4 15.1 16.1z"/>
    <path class="k"
          d="m25 82.1c-4.3 1.7-12.1-6.8-14.1-12-2.1-5.2-2-16.6 2.4-18.3 4.4-1.7-4.6 7.4-0.6 17.6 3.9 10.3 16.6 11.1 12.3 12.7z"/>
    <path class="g"
          d="m25 82.1c-4.3 1.7-12.1-6.8-14.1-12-2.1-5.2-2-16.6 2.4-18.3 4.4-1.7-4.6 7.4-0.6 17.6 3.9 10.3 16.6 11.1 12.3 12.7z"/>
    <path class="l"
          d="m25 82.1c-4.3 1.7-12.1-6.8-14.1-12-2.1-5.2-2-16.6 2.4-18.3 4.4-1.7-4.6 7.4-0.6 17.6 3.9 10.3 16.6 11.1 12.3 12.7z"/>
  </g>
  <path class="m"
        d="m41.4 58.4c-3.2-8.2-3-17.2-1.6-17.7 1.3-0.6 6.3 2.8 10.6 14.2 4.4 11.3 3 17.1 1.7 17.7-1.4 0.5-7.6-6-10.7-14.2z"/>
  <path class="b"
        d="m41.4 58.4c-3.2-8.2-3-17.2-1.6-17.7 1.3-0.6 6.3 2.8 10.6 14.2 4.4 11.3 3 17.1 1.7 17.7-1.4 0.5-7.6-6-10.7-14.2z"/>
  <g clip-path="url(#cp2)">
    <path fill-rule="evenodd" class="n"
          d="m36.1 51h0.1q0 0 0 0 0.1 0 0.2-0.1 0.3-0.1 0.8-0.4c0.6-0.3 1.6-0.8 2.7-1.4 2.2-1.3 4.9-3.3 7.1-6 2.2-2.7 3.9-6.1 4.2-10.2 0.2-4.2-1-9.2-4.9-15.3l2.4-1.5c4.1 6.5 5.5 12.1 5.2 17-0.3 4.8-2.3 8.7-4.8 11.8-2.5 3-5.4 5.2-7.8 6.6-1.2 0.7-2.2 1.2-2.9 1.6q-0.6 0.2-0.9 0.4-0.2 0-0.3 0.1 0 0 0 0h-0.1c0 0 0 0-0.5-1.3-0.5-1.3-0.5-1.3-0.5-1.3z"/>
    <path fill-rule="evenodd" class="n"
          d="m59.3 47.8c-1.9-0.6-3.5-1.9-4.3-4-1-2.4-0.6-5.1 1.4-6 1-0.5 2.2-0.3 3.1 0.3 0.9 0.6 1.7 1.7 2.2 3.1q0.9 2.2 0.9 4.3c2-0.1 4.4-0.8 6.8-2.1 5.5-3 10-8.6 9.5-14.6l2.7-0.2c0.7 7.5-4.9 13.9-10.9 17.2-2.8 1.6-5.9 2.5-8.6 2.5-0.5 1.4-1.5 2.7-2.8 3.7-3.1 2.3-8 3.3-14 3.3v-2.8c5.8 0.1 10-1 12.3-2.8q1.1-0.8 1.7-1.9zm-0.2-5.6c-0.4-1.1-0.9-1.6-1.2-1.8q-0.2-0.1-0.2-0.1-0.1 0-0.1 0c0 0-0.2 0.1-0.3 0.6-0.1 0.4-0.1 1 0.3 1.9q0.6 1.6 2.2 2.3-0.1-1.3-0.7-2.9z"/>
    <g clip-path="url(#cp3)">
      <path fill-rule="evenodd" class="n"
            d="m69.4 43.4c5.5-3 10-8.6 9.5-14.6l2.7-0.2c0.7 7.5-4.9 13.9-10.9 17.2-3 1.6-6.2 2.6-9.1 2.5-2.9-0.2-5.5-1.5-6.6-4.5l2.6-1c0.6 1.7 2.1 2.6 4.2 2.7 2.2 0.1 4.9-0.7 7.6-2.1z"/>
    </g>
    <path fill-rule="evenodd" class="n"
          d="m77 57c0.7 0.9 1.2 1.8 1.6 2.5q0.3 0.6 0.4 0.9 0.1 0.1 0.2 0.2 0 0.1 0 0.1c0 0 0 0-1.3 0.6-1.2 0.6-1.2 0.6-1.2 0.6v-0.1q0 0-0.1 0 0-0.1-0.1-0.2-0.1-0.3-0.3-0.7c-0.4-0.7-0.8-1.5-1.4-2.2-0.6-0.8-1.2-1.5-1.9-2-0.6-0.4-1.1-0.6-1.5-0.5-0.1 0-0.2 0.1-0.3 0.2-0.1 0-0.2 0.2-0.2 0.4-0.2 0.6-0.3 1.4-0.4 2.5q0 0 0 0.1c0 0.9-0.1 2.1-0.5 3-0.1 0.5-0.5 1.1-1 1.5q-0.8 0.7-1.9 0.7c-1.2 0-2.2-0.5-2.9-1.2-0.6-0.6-1.1-1.5-1.5-2.2q-0.1-0.3-0.3-0.5c-0.2-0.5-0.4-1-0.7-1.3-0.3-0.5-0.4-0.5-0.4-0.5-0.7-0.2-1.2-0.1-1.6 0.1-0.5 0.2-1 0.5-1.5 1.1q-0.3 0.2-0.5 0.4c-1 1-2.4 2.3-4.3 2.8-4.4 1.2-9.5 0.3-13.5-1.1-4.1-1.4-7.5-3.3-8.7-4.1l1.5-2.3c1.1 0.7 4.2 2.4 8.1 3.7 3.8 1.4 8.2 2.1 11.9 1.1 1.2-0.3 2-1 3-2q0.3-0.3 0.6-0.6c0.6-0.5 1.3-1.2 2.3-1.6 0.9-0.4 2-0.5 3.2-0.2 1.1 0.2 1.8 1 2.3 1.7 0.3 0.5 0.6 1.1 0.9 1.6q0.1 0.2 0.2 0.4c0.4 0.7 0.7 1.2 1 1.6 0.3 0.2 0.5 0.3 0.8 0.3 0.2 0 0.3 0 0.3 0 0-0.1 0.1-0.1 0.1-0.4 0.2-0.5 0.3-1.2 0.4-2.3q0 0 0-0.1c0-0.9 0.1-2.1 0.4-3 0.2-0.6 0.5-1.1 0.9-1.6q0.8-0.7 1.8-0.9c1.4-0.3 2.7 0.3 3.7 1 0.9 0.6 1.8 1.6 2.4 2.5z"/>
  </g>
  <path fill-rule="evenodd" class="o"
        d="m36.1 51h0.1q0 0 0 0 0.1 0 0.2-0.1 0.3-0.1 0.8-0.4c0.6-0.3 1.6-0.8 2.7-1.4 2.2-1.3 4.9-3.3 7.1-6 2.2-2.7 3.9-6.1 4.2-10.2 0.2-4.2-1-9.2-4.9-15.3l2.4-1.5c4.1 6.5 5.5 12.1 5.2 17-0.3 4.8-2.3 8.7-4.8 11.8-2.5 3-5.4 5.2-7.8 6.6-1.2 0.7-2.2 1.2-2.9 1.6q-0.6 0.2-0.9 0.4-0.2 0-0.3 0.1 0 0 0 0h-0.1c0 0 0 0-0.5-1.3-0.5-1.3-0.5-1.3-0.5-1.3z"/>
  <path fill-rule="evenodd" class="p"
        d="m59.3 47.8c-1.9-0.6-3.5-1.9-4.3-4-1-2.4-0.6-5.1 1.4-6 1-0.5 2.2-0.3 3.1 0.3 0.9 0.6 1.7 1.7 2.2 3.1q0.9 2.2 0.9 4.3c2-0.1 4.4-0.8 6.8-2.1 5.5-3 10-8.6 9.5-14.6l2.7-0.2c0.7 7.5-4.9 13.9-10.9 17.2-2.8 1.6-5.9 2.5-8.6 2.5-0.5 1.4-1.5 2.7-2.8 3.7-3.1 2.3-8 3.3-14 3.3v-2.8c5.8 0.1 10-1 12.3-2.8q1.1-0.8 1.7-1.9zm-0.2-5.6c-0.4-1.1-0.9-1.6-1.2-1.8q-0.2-0.1-0.2-0.1-0.1 0-0.1 0c0 0-0.2 0.1-0.3 0.6-0.1 0.4-0.1 1 0.3 1.9q0.6 1.6 2.2 2.3-0.1-1.3-0.7-2.9z"/>
  <g clip-path="url(#cp4)">
    <path fill-rule="evenodd" class="q"
          d="m69.4 43.4c5.5-3 10-8.6 9.5-14.6l2.7-0.2c0.7 7.5-4.9 13.9-10.9 17.2-3 1.6-6.2 2.6-9.1 2.5-2.9-0.2-5.5-1.5-6.6-4.5l2.6-1c0.6 1.7 2.1 2.6 4.2 2.7 2.2 0.1 4.9-0.7 7.6-2.1z"/>
    <path fill-rule="evenodd" class="b"
          d="m69.4 43.4c5.5-3 10-8.6 9.5-14.6l2.7-0.2c0.7 7.5-4.9 13.9-10.9 17.2-3 1.6-6.2 2.6-9.1 2.5-2.9-0.2-5.5-1.5-6.6-4.5l2.6-1c0.6 1.7 2.1 2.6 4.2 2.7 2.2 0.1 4.9-0.7 7.6-2.1z"/>
  </g>
  <path fill-rule="evenodd" class="r"
        d="m63.6 69.4c0.5 0.4 1 0.9 1.5 1.3q0.8 0.6 1.6 0.8c0.4 0.2 0.8 0.1 1 0 0 0 0.1 0 0.2-0.1 0.1-0.2 0.2-0.3 0.3-0.5q0.1-0.1 0.2-0.3c0.3-0.5 1.1-1.8 2.7-1.7 0.7 0 1.4 0.3 1.8 0.6 0.4 0.3 0.7 0.6 1 0.8q0.1 0.1 0.2 0.2c0.7 0.6 1.1 0.9 1.5 0.9 0.5 0 0.8-0.3 1.5-1.2q0.1-0.1 0.1-0.1c0.6-0.8 1.6-2.1 3.3-2.3 0.9-0.1 1.8 0.1 2.6 0.3 0.8 0.3 1.6 0.6 2.2 0.9 0.7 0.4 1.4 0.7 1.8 1q0.3 0.2 0.5 0.3 0.1 0 0.2 0.1 0 0 0 0c0 0 0 0-0.7 1.2-0.7 1.1-0.7 1.1-0.7 1.1q-0.1 0-0.1 0 0 0-0.1-0.1-0.2-0.1-0.5-0.2c-0.4-0.3-0.9-0.6-1.5-0.8-0.7-0.3-1.3-0.6-1.9-0.8q-1-0.3-1.5-0.2c-0.4 0-0.7 0.4-1.5 1.3q0 0.1 0 0.1c-0.7 0.8-1.7 2.2-3.6 2.2-1.7 0-2.8-1-3.5-1.7q-0.1 0-0.2-0.1c-0.3-0.3-0.5-0.5-0.7-0.6q-0.2-0.2-0.2-0.2c-0.1 0.1-0.2 0.2-0.4 0.5q0 0 0 0.1c-0.2 0.3-0.4 0.6-0.6 0.9-0.3 0.4-0.7 0.8-1.4 1-1 0.4-2 0.3-2.9 0-0.9-0.2-1.6-0.7-2.3-1.2-0.7-0.5-1.3-1-1.7-1.4q-0.1-0.1-0.2-0.1-0.3-0.3-0.5-0.4-0.1-0.1-0.2-0.2 0 0 0 0 0-0.1 0-0.1l1.4-2.3c0.3 0.2 0.8 0.6 1.2 0.9q0 0 0.1 0.1z"/>
  <path fill-rule="evenodd" class="b"
        d="m63.6 69.4c0.5 0.4 1 0.9 1.5 1.3q0.8 0.6 1.6 0.8c0.4 0.2 0.8 0.1 1 0 0 0 0.1 0 0.2-0.1 0.1-0.2 0.2-0.3 0.3-0.5q0.1-0.1 0.2-0.3c0.3-0.5 1.1-1.8 2.7-1.7 0.7 0 1.4 0.3 1.8 0.6 0.4 0.3 0.7 0.6 1 0.8q0.1 0.1 0.2 0.2c0.7 0.6 1.1 0.9 1.5 0.9 0.5 0 0.8-0.3 1.5-1.2q0.1-0.1 0.1-0.1c0.6-0.8 1.6-2.1 3.3-2.3 0.9-0.1 1.8 0.1 2.6 0.3 0.8 0.3 1.6 0.6 2.2 0.9 0.7 0.4 1.4 0.7 1.8 1q0.3 0.2 0.5 0.3 0.1 0 0.2 0.1 0 0 0 0c0 0 0 0-0.7 1.2-0.7 1.1-0.7 1.1-0.7 1.1q-0.1 0-0.1 0 0 0-0.1-0.1-0.2-0.1-0.5-0.2c-0.4-0.3-0.9-0.6-1.5-0.8-0.7-0.3-1.3-0.6-1.9-0.8q-1-0.3-1.5-0.2c-0.4 0-0.7 0.4-1.5 1.3q0 0.1 0 0.1c-0.7 0.8-1.7 2.2-3.6 2.2-1.7 0-2.8-1-3.5-1.7q-0.1 0-0.2-0.1c-0.3-0.3-0.5-0.5-0.7-0.6q-0.2-0.2-0.2-0.2c-0.1 0.1-0.2 0.2-0.4 0.5q0 0 0 0.1c-0.2 0.3-0.4 0.6-0.6 0.9-0.3 0.4-0.7 0.8-1.4 1-1 0.4-2 0.3-2.9 0-0.9-0.2-1.6-0.7-2.3-1.2-0.7-0.5-1.3-1-1.7-1.4q-0.1-0.1-0.2-0.1-0.3-0.3-0.5-0.4-0.1-0.1-0.2-0.2 0 0 0 0 0-0.1 0-0.1l1.4-2.3c0.3 0.2 0.8 0.6 1.2 0.9q0 0 0.1 0.1z"/>
  <path fill-rule="evenodd" class="s"
        d="m77 57c0.7 0.9 1.2 1.8 1.6 2.5q0.3 0.6 0.4 0.9 0.1 0.1 0.2 0.2 0 0.1 0 0.1c0 0 0 0-1.3 0.6-1.2 0.6-1.2 0.6-1.2 0.6v-0.1q0 0-0.1 0 0-0.1-0.1-0.2-0.1-0.3-0.3-0.7c-0.4-0.7-0.8-1.5-1.4-2.2-0.6-0.8-1.2-1.5-1.9-2-0.6-0.4-1.1-0.6-1.5-0.5-0.1 0-0.2 0.1-0.3 0.2-0.1 0-0.2 0.2-0.2 0.4-0.2 0.6-0.3 1.4-0.4 2.5q0 0 0 0.1c0 0.9-0.1 2.1-0.5 3-0.1 0.5-0.5 1.1-1 1.5q-0.8 0.7-1.9 0.7c-1.2 0-2.2-0.5-2.9-1.2-0.6-0.6-1.1-1.5-1.5-2.2q-0.1-0.3-0.3-0.5c-0.2-0.5-0.4-1-0.7-1.3-0.3-0.5-0.4-0.5-0.4-0.5-0.7-0.2-1.2-0.1-1.6 0.1-0.5 0.2-1 0.5-1.5 1.1q-0.3 0.2-0.5 0.4c-1 1-2.4 2.3-4.3 2.8-4.4 1.2-9.5 0.3-13.5-1.1-4.1-1.4-7.5-3.3-8.7-4.1l1.5-2.3c1.1 0.7 4.2 2.4 8.1 3.7 3.8 1.4 8.2 2.1 11.9 1.1 1.2-0.3 2-1 3-2q0.3-0.3 0.6-0.6c0.6-0.5 1.3-1.2 2.3-1.6 0.9-0.4 2-0.5 3.2-0.2 1.1 0.2 1.8 1 2.3 1.7 0.3 0.5 0.6 1.1 0.9 1.6q0.1 0.2 0.2 0.4c0.4 0.7 0.7 1.2 1 1.6 0.3 0.2 0.5 0.3 0.8 0.3 0.2 0 0.3 0 0.3 0 0-0.1 0.1-0.1 0.1-0.4 0.2-0.5 0.3-1.2 0.4-2.3q0 0 0-0.1c0-0.9 0.1-2.1 0.4-3 0.2-0.6 0.5-1.1 0.9-1.6q0.8-0.7 1.8-0.9c1.4-0.3 2.7 0.3 3.7 1 0.9 0.6 1.8 1.6 2.4 2.5z"/>
  <path fill-rule="evenodd" class="b"
        d="m77 57c0.7 0.9 1.2 1.8 1.6 2.5q0.3 0.6 0.4 0.9 0.1 0.1 0.2 0.2 0 0.1 0 0.1c0 0 0 0-1.3 0.6-1.2 0.6-1.2 0.6-1.2 0.6v-0.1q0 0-0.1 0 0-0.1-0.1-0.2-0.1-0.3-0.3-0.7c-0.4-0.7-0.8-1.5-1.4-2.2-0.6-0.8-1.2-1.5-1.9-2-0.6-0.4-1.1-0.6-1.5-0.5-0.1 0-0.2 0.1-0.3 0.2-0.1 0-0.2 0.2-0.2 0.4-0.2 0.6-0.3 1.4-0.4 2.5q0 0 0 0.1c0 0.9-0.1 2.1-0.5 3-0.1 0.5-0.5 1.1-1 1.5q-0.8 0.7-1.9 0.7c-1.2 0-2.2-0.5-2.9-1.2-0.6-0.6-1.1-1.5-1.5-2.2q-0.1-0.3-0.3-0.5c-0.2-0.5-0.4-1-0.7-1.3-0.3-0.5-0.4-0.5-0.4-0.5-0.7-0.2-1.2-0.1-1.6 0.1-0.5 0.2-1 0.5-1.5 1.1q-0.3 0.2-0.5 0.4c-1 1-2.4 2.3-4.3 2.8-4.4 1.2-9.5 0.3-13.5-1.1-4.1-1.4-7.5-3.3-8.7-4.1l1.5-2.3c1.1 0.7 4.2 2.4 8.1 3.7 3.8 1.4 8.2 2.1 11.9 1.1 1.2-0.3 2-1 3-2q0.3-0.3 0.6-0.6c0.6-0.5 1.3-1.2 2.3-1.6 0.9-0.4 2-0.5 3.2-0.2 1.1 0.2 1.8 1 2.3 1.7 0.3 0.5 0.6 1.1 0.9 1.6q0.1 0.2 0.2 0.4c0.4 0.7 0.7 1.2 1 1.6 0.3 0.2 0.5 0.3 0.8 0.3 0.2 0 0.3 0 0.3 0 0-0.1 0.1-0.1 0.1-0.4 0.2-0.5 0.3-1.2 0.4-2.3q0 0 0-0.1c0-0.9 0.1-2.1 0.4-3 0.2-0.6 0.5-1.1 0.9-1.6q0.8-0.7 1.8-0.9c1.4-0.3 2.7 0.3 3.7 1 0.9 0.6 1.8 1.6 2.4 2.5z"/>
  <path class="t"
        d="m133.7 63c0.1 0.6-0.3 1.2-0.9 1.3l-3.3 0.5c-0.6 0.2-1.2-0.2-1.3-0.9l-0.6-3.2c-0.1-0.6 0.3-1.2 0.9-1.3l3.3-0.6c0.6-0.1 1.2 0.3 1.3 0.9z"/>
  <path class="u"
        fill="lightblue"
        d="m133.7 63c0.1 0.6-0.3 1.2-0.9 1.3l-3.3 0.5c-0.6 0.2-1.2-0.2-1.3-0.9l-0.6-3.2c-0.1-0.6 0.3-1.2 0.9-1.3l3.3-0.6c0.6-0.1 1.2 0.3 1.3 0.9z"/>
  <path class="v"
        d="m113.8 46.4c0.5 0.4 0.7 1.1 0.3 1.6l-1.9 2.7c-0.4 0.5-1 0.6-1.5 0.3l-2.8-1.9c-0.5-0.4-0.6-1.1-0.3-1.6l2-2.7c0.3-0.5 1-0.6 1.5-0.3z"/>
  <path class="u"
        fill="green"
        d="m113.8 46.4c0.5 0.4 0.7 1.1 0.3 1.6l-1.9 2.7c-0.4 0.5-1 0.6-1.5 0.3l-2.8-1.9c-0.5-0.4-0.6-1.1-0.3-1.6l2-2.7c0.3-0.5 1-0.6 1.5-0.3z"/>
  <path class="w"
        d="m110.7 19.4c-0.4 0.5-1.1 0.5-1.6 0.2l-2.6-2.1c-0.5-0.4-0.6-1.1-0.2-1.5l2.1-2.7c0.3-0.5 1-0.5 1.5-0.2l2.7 2.1c0.4 0.4 0.5 1.1 0.2 1.5z"/>
  <path class="u"
        fill="yellow"
        d="m110.7 19.4c-0.4 0.5-1.1 0.5-1.6 0.2l-2.6-2.1c-0.5-0.4-0.6-1.1-0.2-1.5l2.1-2.7c0.3-0.5 1-0.5 1.5-0.2l2.7 2.1c0.4 0.4 0.5 1.1 0.2 1.5z"/>
  <path class="x"
        d="m98.4 69.2c0.6-0.3 1.3-0.1 1.5 0.5l1 1.7c0.3 0.5 0 1.2-0.5 1.5l-4.2 2.2c-0.5 0.3-1.2 0.1-1.5-0.4l-0.9-1.7c-0.3-0.6-0.1-1.3 0.5-1.5z"/>
  <path class="u"
        fill="white"
        d="m98.4 69.2c0.6-0.3 1.3-0.1 1.5 0.5l1 1.7c0.3 0.5 0 1.2-0.5 1.5l-4.2 2.2c-0.5 0.3-1.2 0.1-1.5-0.4l-0.9-1.7c-0.3-0.6-0.1-1.3 0.5-1.5z"/>
  <path class="y"
        d="m90.4 7.4c0.5 0.4 0.7 1.1 0.3 1.6l-1 1.6c-0.4 0.5-1 0.7-1.6 0.3l-3.9-2.5c-0.5-0.4-0.7-1.1-0.4-1.6l1.1-1.6c0.3-0.5 1-0.7 1.5-0.3z"/>
  <path class="u"
        fill="red"
        d="m90.4 7.4c0.5 0.4 0.7 1.1 0.3 1.6l-1 1.6c-0.4 0.5-1 0.7-1.6 0.3l-3.9-2.5c-0.5-0.4-0.7-1.1-0.4-1.6l1.1-1.6c0.3-0.5 1-0.7 1.5-0.3z">
  </path>
  <path class="z"
        d="m127.6 26.7c0.5-0.3 1.2-0.2 1.5 0.4l1 1.6c0.3 0.6 0.2 1.2-0.4 1.6l-4 2.4c-0.5 0.3-1.2 0.2-1.5-0.4l-1-1.6c-0.3-0.6-0.2-1.2 0.3-1.6z"/>
  <path class="u"
        fill="orange"
        d="m127.6 26.7c0.5-0.3 1.2-0.2 1.5 0.4l1 1.6c0.3 0.6 0.2 1.2-0.4 1.6l-4 2.4c-0.5 0.3-1.2 0.2-1.5-0.4l-1-1.6c-0.3-0.6-0.2-1.2 0.3-1.6z"/>
  <path class="A"
        d="m63.7 8.9c0.6-0.2 1.2 0.2 1.4 0.8l0.9 3.2c0.2 0.6-0.2 1.2-0.8 1.4l-3.2 0.9c-0.6 0.2-1.2-0.2-1.3-0.8l-1-3.2c-0.1-0.6 0.2-1.2 0.8-1.4z"/>
  <path class="u"
        fill="grey"
        d="m63.7 8.9c0.6-0.2 1.2 0.2 1.4 0.8l0.9 3.2c0.2 0.6-0.2 1.2-0.8 1.4l-3.2 0.9c-0.6 0.2-1.2-0.2-1.3-0.8l-1-3.2c-0.1-0.6 0.2-1.2 0.8-1.4z"/>
  <path class="B"
        d="m92 35.1c-0.1-0.6 0.3-1.2 0.8-1.3l1.9-0.5c0.6-0.2 1.2 0.2 1.4 0.8l1.1 4.6c0.2 0.6-0.2 1.2-0.8 1.3l-1.9 0.5c-0.6 0.1-1.2-0.2-1.3-0.8z"/>
  <path class="u"
        fill="purple"
        d="m92 35.1c-0.1-0.6 0.3-1.2 0.8-1.3l1.9-0.5c0.6-0.2 1.2 0.2 1.4 0.8l1.1 4.6c0.2 0.6-0.2 1.2-0.8 1.3l-1.9 0.5c-0.6 0.1-1.2-0.2-1.3-0.8z"/>
  <path class="C"
        d="m56.3 4.1c0.3 0.5 0 1.3-0.6 1.3l-4.3 0.5c-0.7 0.1-1.1-0.6-0.9-1.2l1.8-3.9c0.2-0.6 1-0.7 1.4-0.2z"/>
  <path class="u"
        fill="violet"
        d="m56.3 4.1c0.3 0.5 0 1.3-0.6 1.3l-4.3 0.5c-0.7 0.1-1.1-0.6-0.9-1.2l1.8-3.9c0.2-0.6 1-0.7 1.4-0.2z"/>
  <path class="D"
        d="m92 57.8c-0.6 0.2-1.2-0.3-1.1-1l0.6-4.2c0.1-0.7 0.9-1 1.4-0.6l3.3 2.8c0.5 0.4 0.4 1.2-0.2 1.4z"/>
  <path class="u"
        fill="brown"
        d="m92 57.8c-0.6 0.2-1.2-0.3-1.1-1l0.6-4.2c0.1-0.7 0.9-1 1.4-0.6l3.3 2.8c0.5 0.4 0.4 1.2-0.2 1.4z"/>
  <path fill-rule="evenodd" class="E"
        d="m61.3 28.2q0 0 0 0 0.1 0 0.1-0.1 0.1-0.1 0.3-0.3 0.4-0.4 1-1.1c0.9-0.9 2.3-2.1 3.9-3.4 3.3-2.5 8-5.1 13.5-5.5 5.2-0.3 9.5 1.5 12.5 3.4 1.5 0.9 2.7 1.9 3.5 2.6q0.6 0.6 0.9 0.9 0.2 0.2 0.3 0.3 0 0 0.1 0 0 0 0 0.1c0 0 0 0-1.1 0.9-1 0.9-1 0.9-1 0.9q0 0-0.1-0.1 0 0-0.1-0.2-0.3-0.3-0.9-0.7c-0.7-0.7-1.7-1.5-3.1-2.4-2.6-1.7-6.4-3.2-10.8-2.9-4.7 0.3-9 2.6-12 4.9-1.5 1.2-2.8 2.3-3.6 3.1q-0.6 0.7-0.9 1-0.2 0.2-0.3 0.3 0 0.1 0 0.1c0 0 0 0-1.1-0.9-1.1-0.9-1.1-0.9-1.1-0.9z"/>
  <path fill-rule="evenodd" class="b"
        d="m61.3 28.2q0 0 0 0 0.1 0 0.1-0.1 0.1-0.1 0.3-0.3 0.4-0.4 1-1.1c0.9-0.9 2.3-2.1 3.9-3.4 3.3-2.5 8-5.1 13.5-5.5 5.2-0.3 9.5 1.5 12.5 3.4 1.5 0.9 2.7 1.9 3.5 2.6q0.6 0.6 0.9 0.9 0.2 0.2 0.3 0.3 0 0 0.1 0 0 0 0 0.1c0 0 0 0-1.1 0.9-1 0.9-1 0.9-1 0.9q0 0-0.1-0.1 0 0-0.1-0.2-0.3-0.3-0.9-0.7c-0.7-0.7-1.7-1.5-3.1-2.4-2.6-1.7-6.4-3.2-10.8-2.9-4.7 0.3-9 2.6-12 4.9-1.5 1.2-2.8 2.3-3.6 3.1q-0.6 0.7-0.9 1-0.2 0.2-0.3 0.3 0 0.1 0 0.1c0 0 0 0-1.1-0.9-1.1-0.9-1.1-0.9-1.1-0.9z"/>
</svg>
