<svg width="35" height="32" viewBox="0 0 35 32" fill="none" xmlns="http://www.w3.org/2000/svg">
<path d="M25.7222 4V5.5H27.2222H33.5V9C33.5 10.6059 32.4912 12.4994 30.3459 14.0884L30.3437 14.0901C28.6581 15.3434 26.5823 16.1516 24.3798 16.4102L23.6381 16.4973L23.2605 17.1417C22.3902 18.627 21.4525 19.6657 20.7467 20.3245C20.3938 20.6539 20.0997 20.8875 19.9024 21.0336C19.8038 21.1066 19.7296 21.1576 19.6846 21.1875C19.6748 21.1941 19.6664 21.1996 19.6594 21.2041C19.6504 21.21 19.6438 21.2142 19.6397 21.2168C19.6385 21.2176 19.6375 21.2182 19.6367 21.2187L18.9167 21.6526V22.5V27V28.5H20.4167H23.3333C24.1147 28.5 24.723 28.7356 25.11 29.065C25.4715 29.3727 25.7222 29.8265 25.7222 30.5H9.27778C9.27778 29.8265 9.52846 29.3727 9.89002 29.065C10.277 28.7356 10.8853 28.5 11.6667 28.5H14.5833H16.0833V27V22.5V21.6526L15.3633 21.2187C15.3625 21.2182 15.3615 21.2176 15.3603 21.2168C15.353 21.2122 15.3379 21.2025 15.3154 21.1875C15.2704 21.1576 15.1962 21.1066 15.0976 21.0336C14.9003 20.8875 14.6062 20.6539 14.2533 20.3245C13.5475 19.6657 12.6098 18.627 11.7395 17.1417L11.3621 16.4975L10.6206 16.4103C8.42458 16.1518 6.34764 15.3437 4.6545 14.0887L4.65261 14.0873C2.50428 12.5001 1.5 10.6074 1.5 9V5.5H7.77778H9.27778V4V1.5H25.7222V4ZM15.3651 21.2198C15.3652 21.2199 15.3652 21.2199 15.365 21.2198L15.3651 21.2198ZM5.1401 13.2547L5.14114 13.2554C6.02631 13.911 7.01638 14.4293 8.06688 14.8014L10.7676 15.758L10.015 12.9935C9.62063 11.5447 9.3465 9.87439 9.28926 7.95529L9.24586 6.5H7.78993H3.88889H2.38889V8V9C2.38889 9.76586 2.71414 10.5416 3.15156 11.2077C3.61001 11.9059 4.27408 12.6121 5.1401 13.2547ZM29.8589 13.2554L29.8601 13.2545C30.4922 12.7854 31.1376 12.175 31.6403 11.5039C32.1119 10.8741 32.6111 9.98763 32.6111 9V8V6.5H31.1111H27.204H25.7481L25.7047 7.95529C25.6474 9.87439 25.3733 11.5447 24.9789 12.9935L24.2263 15.758L26.927 14.8014C27.9746 14.4303 28.9714 13.9127 29.8589 13.2554Z" stroke="white" stroke-width="3"/>
</svg>
