<svg width="26" height="24" viewBox="0 0 26 24" fill="none" xmlns="http://www.w3.org/2000/svg">
<path d="M1.0651 16.7989C0.363665 15.2956 0.000213623 13.6585 7.05719e-05 12.0014C7.05719e-05 5.37333 5.71866 0 12.7719 0C19.8251 0 25.542 5.37333 25.542 11.9964C25.542 18.3016 20.3643 23.4686 13.7867 23.9545C9.3491 24.3555 4.6838 21.921 3.14823 23.8447C4.33549 22.3586 2.0514 19.1969 1.05672 16.7873L1.0651 16.7989Z" fill="url(#paint0_radial_6_185)"/>
<path d="M7.91746 1.84547C11.4022 0.0948491 15.2855 0.411025 18.4236 2.07345C14.8283 0.409361 10.7759 0.958509 7.17229 3.29988C0.91617 7.36523 1.61109 14.2129 2.16871 17.0935C0.795582 13.5473 0.00353241 5.90417 7.91746 1.84547Z" fill="#FF8FA8"/>
<path d="M15.7577 21.8794C22.4392 18.8491 25.1201 11.825 22.2466 5.96241C21.6287 4.69937 20.5905 3.61605 19.5673 2.78235C20.8902 3.75917 22.1059 5.00723 22.8829 6.52987C25.8385 12.3325 23.7101 19.1669 17.6784 22.0058C15.532 23.05 13.1239 23.4435 10.7541 23.1374C12.2143 22.9627 13.9341 22.7048 15.7577 21.8794Z" fill="#CC1B5B"/>
<path d="M4.43601 7.32198C4.84814 6.6976 5.30009 6.10008 5.78906 5.53309C5.90963 5.38997 6.03187 5.24853 6.16583 5.1154C6.2998 4.98227 6.42369 4.84249 6.55597 4.70936C6.8306 4.45143 7.1002 4.19017 7.39325 3.95553C7.97295 3.47221 8.60084 3.049 9.2671 2.69249C9.9332 2.33724 10.6376 2.05811 11.367 1.86045C12.8165 1.47123 14.3368 1.41998 15.8095 1.71068C17.258 2.00855 18.668 2.581 19.7816 3.55615C19.802 3.57439 19.8147 3.59961 19.8172 3.62676C19.8197 3.65392 19.8117 3.681 19.795 3.70259C19.7864 3.71401 19.7757 3.72361 19.7633 3.73082C19.7509 3.73804 19.7372 3.74271 19.723 3.74457C19.7088 3.74643 19.6944 3.74545 19.6806 3.74166C19.6668 3.73788 19.6539 3.73139 19.6426 3.72256C18.519 2.85557 17.1207 2.39129 15.7308 2.19493C14.3382 2.00787 12.9209 2.14342 11.5897 2.59098C10.2778 3.04265 9.08062 3.77292 8.08151 4.731C7.8253 4.9623 7.59253 5.21857 7.35641 5.46985L7.0215 5.86424C6.90763 5.99404 6.80383 6.13216 6.7 6.27194C6.28122 6.82379 5.89862 7.40187 5.5546 8.00259L5.54123 8.02422L5.52111 8.0575C5.42155 8.19652 5.27112 8.29123 5.10211 8.32134C4.93309 8.35144 4.75895 8.31453 4.617 8.21853C4.47504 8.12253 4.37659 7.97507 4.34276 7.80778C4.30892 7.64049 4.3424 7.46669 4.43601 7.32364V7.32198ZM2.94735 9.8181C2.98747 9.56381 3.12646 9.33535 3.33443 9.18191C3.54239 9.02846 3.80268 8.96232 4.05923 8.99771C4.18448 9.02118 4.3038 9.06917 4.41021 9.13889C4.51662 9.20861 4.608 9.29867 4.67906 9.40381C4.75011 9.50896 4.79942 9.6271 4.82411 9.75137C4.84879 9.87563 4.84836 10.0035 4.82284 10.1276C4.78312 10.3821 4.6442 10.6108 4.43613 10.7644C4.22806 10.9179 3.96754 10.9838 3.71091 10.948C3.5848 10.9246 3.4647 10.8764 3.35765 10.8061C3.2506 10.7358 3.15878 10.645 3.08762 10.5389C3.01645 10.4328 2.9674 10.3137 2.9433 10.1884C2.91921 10.0632 2.92059 9.93447 2.94735 9.80978V9.8181Z" fill="white"/>
<defs>
<radialGradient id="paint0_radial_6_185" cx="0" cy="0" r="1" gradientUnits="userSpaceOnUse" gradientTransform="translate(13.6292 6.55483) rotate(180) scale(17.5208 17.4113)">
<stop stop-color="#FF7A99"/>
<stop offset="0.22" stop-color="#FF7697"/>
<stop offset="0.43" stop-color="#FF6B91"/>
<stop offset="0.63" stop-color="#FF5886"/>
<stop offset="0.84" stop-color="#FF3D78"/>
<stop offset="1" stop-color="#FF2169"/>
</radialGradient>
</defs>
</svg>
