<svg xmlns="http://www.w3.org/2000/svg" xmlns:xlink="http://www.w3.org/1999/xlink" xml:space="preserve" id="logo" viewBox="0 0 180 60">
	<g>
		<path fill="#ff2169" d="M148.3,18.08C143.51,9,132.52,6,123.39,10.77s-13,15.51-8.16,24.64c8.83,16.85,25,7.41,28.05,13.3C140.19,42.82,157.49,35.61,148.3,18.08Z"/>
		<path fill="#ff8fa8" d="M139.51,11.29a16.91,16.91,0,0,0-16.13.37c5.52-2.67,11.74-1.78,17.27,1.95,9.6,6.49,8.54,17.42,7.68,22C150.44,30,151.65,17.77,139.51,11.29Z"/>
		<path fill="#cc1b5b" d="M127.48,43.26c-10.26-4.84-14.37-16-10-25.4a15.71,15.71,0,0,1,4.11-5.08,17.3,17.3,0,0,0-5.09,6c-4.54,9.26-1.27,20.17,8,24.71a18.18,18.18,0,0,0,10.63,1.8A24.26,24.26,0,0,1,127.48,43.26Z"/>
		<path fill="#ffffff" d="M145.15,19.88a27.25,27.25,0,0,0-2.1-2.83c-.36-.46-.79-.88-1.19-1.31s-.84-.83-1.3-1.2a16.23,16.23,0,0,0-6.21-3.37,14.65,14.65,0,0,0-7-.21,13,13,0,0,0-6.13,3,.22.22,0,0,0,0,.3.21.21,0,0,0,.31,0h0a12.3,12.3,0,0,1,6-2.36,13.35,13.35,0,0,1,6.31.71,14.42,14.42,0,0,1,5.25,3.45c.38.36.72.77,1.07,1.16s.67.82,1,1.27a25.09,25.09,0,0,1,1.69,2.71l0,.05.06.09a1.35,1.35,0,1,0,2.23-1.51Zm2,4.12A1.46,1.46,0,1,0,146,25.8,1.52,1.52,0,0,0,147.14,24Z"/>
	</g>
	<path fill="#ffffff" d="M14.41,12.22c-.66-1.77-2.3-2.44-4.52-2.44H6.61C2.26,9.78.13,11.7.13,15.61V39.83c0,3.91,2.13,5.83,6.48,5.83H9.89c2.22,0,3.86-.66,4.52-2.44v2.44h5.66V0H14.41Zm0,26.43c0,2-.82,2.65-2.79,2.65H8.33c-2.13,0-2.54-.37-2.54-2.28V16.43c0-1.92.41-2.29,2.54-2.29h3.29c2,0,2.79.66,2.79,2.66Zm11.32,7h5.66V9.86H25.73ZM51.32,12.29c-.65-1.77-2.29-2.43-4.51-2.43H43.53c-4.35,0-6.48,1.92-6.48,5.83V39.83c0,3.91,2.13,5.83,6.48,5.83h3.28c2.22,0,3.86-.66,4.51-2.44V53.36c0,1.92-.41,2.28-2.54,2.28H38.28V60H50.5C54.85,60,57,58.08,57,54.17V9.86H51.32Zm0,26.36c0,2-.82,2.65-2.79,2.65H45.25c-2.13,0-2.54-.37-2.54-2.28V16.5c0-1.92.41-2.29,2.54-2.29h3.28c2,0,2.79.67,2.79,2.66Zm11.32,7H68.3V9.86H62.64ZM85.32,14.21V9.86H79.66V0H74V9.86H70.39v4.35H74V39.83c0,3.91,2.13,5.83,6.48,5.83h4.84V40.93H82.2c-2.13,0-2.54-.36-2.54-2.28V14.21Z"/>
	<path fill="#ff2169" d="M108.79,9.83H91.4a3,3,0,0,0-3,3V42.53a3,3,0,1,0,5.92,0V15.75h14.43a4,4,0,0,1,3,1.4,3.79,3.79,0,0,1,1.36,3,4,4,0,0,1-1.33,3.13,4.29,4.29,0,0,1-3.32,1.36l-4.89.06a3,3,0,0,0,0,5.92h0l4.88-.06A10.19,10.19,0,0,0,116,27.49a9.86,9.86,0,0,0,3.1-7.35,9.71,9.71,0,0,0-3.15-7.24A10,10,0,0,0,108.79,9.83Zm68.06,3.07a10,10,0,0,0-7.13-3.07H152.33a3,3,0,0,0-3,3V42.53a3,3,0,1,0,5.91,0V15.75h14.43a4.05,4.05,0,0,1,3,1.4,3.82,3.82,0,0,1,1.35,3,4,4,0,0,1-1.33,3.13,4.24,4.24,0,0,1-3.28,1.36h0l-4.9.06a3,3,0,0,0,0,5.92h0l4.87-.06a10.17,10.17,0,0,0,7.41-3.06,9.84,9.84,0,0,0,3.1-7.35A9.71,9.71,0,0,0,176.85,12.9Z"/>
</svg>